<svg width="42" height="42" viewBox="0 0 42 42" fill="none" xmlns="http://www.w3.org/2000/svg">
<rect x="0.1026" y="0.638428" width="41.271" height="41.271" rx="12" fill="#05DF72"/>
<path d="M29.5564 20.6675C29.5564 16.2866 28.9721 14.1496 27.8103 12.9878C26.6485 11.8261 24.5121 11.2417 20.1316 11.2417C15.7507 11.2417 13.6137 11.826 12.4519 12.9878C11.2901 14.1496 10.7058 16.2866 10.7058 20.6675C10.7058 25.048 11.2902 27.1844 12.4519 28.3462C13.6137 29.508 15.7507 30.0923 20.1316 30.0923C20.358 30.0923 20.5592 30.0928 20.7527 30.0884L20.906 30.0923C21.6639 30.1518 22.2681 30.7769 22.2859 31.5532C22.3047 32.3813 21.6491 33.0684 20.821 33.0874L20.1316 33.0923C15.7722 33.0923 12.4456 32.5841 10.3298 30.4683C8.21414 28.3525 7.70584 25.0266 7.70581 20.6675C7.70581 16.3081 8.21402 12.9815 10.3298 10.8657C12.4456 8.74991 15.7722 8.2417 20.1316 8.2417C24.4908 8.24173 27.8166 8.75002 29.9324 10.8657C32.0482 12.9815 32.5564 16.3081 32.5564 20.6675C32.5564 20.897 32.5553 21.1259 32.5515 21.353C32.5374 22.1812 31.8543 22.8416 31.0261 22.8276C30.198 22.8136 29.5376 22.1304 29.5515 21.3022C29.555 21.0975 29.5564 20.8868 29.5564 20.6675Z" fill="black"/>
<path d="M32.27 27.6643L32.4233 27.6721C33.1799 27.7488 33.77 28.3875 33.77 29.1643C33.77 29.9411 33.1799 30.5799 32.4233 30.6565L32.27 30.6643H24.9868C24.1584 30.6643 23.4868 29.9927 23.4868 29.1643C23.4868 28.3359 24.1584 27.6643 24.9868 27.6643H32.27Z" fill="black"/>
<path d="M27.1287 32.8059V25.5227C27.1287 24.6943 27.8002 24.0227 28.6287 24.0227C29.4571 24.0227 30.1287 24.6943 30.1287 25.5227V32.8059C30.1287 33.6343 29.4571 34.3059 28.6287 34.3059C27.8002 34.3059 27.1287 33.6343 27.1287 32.8059Z" fill="black"/>
</svg>
