<svg width="42" height="42" viewBox="0 0 42 42" fill="none" xmlns="http://www.w3.org/2000/svg">
<rect x="0.1026" y="0.638428" width="41.271" height="41.271" rx="12" fill="#05DF72"/>
<path d="M27.9881 20.7739C27.9881 17.165 27.507 15.41 26.5545 14.4575C25.602 13.505 23.847 13.0239 20.2381 13.0239C16.6292 13.0239 14.8742 13.505 13.9217 14.4575C12.9692 15.41 12.4881 17.165 12.4881 20.7739C12.4881 24.3829 12.9692 26.1378 13.9217 27.0903C14.8742 28.0428 16.6292 28.5239 20.2381 28.5239C20.4248 28.5239 20.5905 28.5236 20.7498 28.52C21.4399 28.5044 22.0125 29.0516 22.0281 29.7417C22.0437 30.4318 21.4966 31.0043 20.8065 31.02C20.6138 31.0244 20.4194 31.0239 20.2381 31.0239C16.647 31.0239 13.9016 30.6054 12.1541 28.8579C10.4066 27.1104 9.9881 24.365 9.9881 20.7739C9.9881 17.1829 10.4066 14.4375 12.1541 12.6899C13.9016 10.9424 16.647 10.5239 20.2381 10.5239C23.8292 10.5239 26.5746 10.9424 28.3221 12.6899C30.0696 14.4375 30.4881 17.1829 30.4881 20.7739C30.4881 20.9632 30.4873 21.152 30.4842 21.3394C30.4724 22.0294 29.9028 22.5795 29.2127 22.5679C28.5226 22.5561 27.9726 21.9865 27.9842 21.2964C27.987 21.1279 27.9881 20.9545 27.9881 20.7739Z" fill="black"/>
<path d="M30.2381 26.5239C30.9285 26.5239 31.4881 27.0836 31.4881 27.7739C31.4881 28.4643 30.9285 29.0239 30.2381 29.0239H24.2381C23.5477 29.0239 22.9881 28.4643 22.9881 27.7739C22.9881 27.0836 23.5477 26.5239 24.2381 26.5239H30.2381Z" fill="black"/>
<path d="M25.9881 30.7739V24.7739C25.9881 24.0836 26.5477 23.5239 27.2381 23.5239C27.9285 23.5239 28.4881 24.0836 28.4881 24.7739V30.7739C28.4881 31.4643 27.9285 32.0239 27.2381 32.0239C26.5477 32.0239 25.9881 31.4643 25.9881 30.7739Z" fill="black"/>
</svg>
